<svg width="400" height="400" viewBox="170 70 340 280" xmlns="http://www.w3.org/2000/svg">
  <style>
    .face  { fill: #ddd8ff; }
    .eye   { fill: #1a1240; }
    .pupil { fill: #5548b0; }
    .cheek { fill: #e07070; opacity: 0.35; }
    .smile { stroke: #5548b0; fill: none; }
    .hair  { fill: #1a1240; }
    .ear   { fill: #c8c0f8; }
  </style>

  <ellipse cx="196" cy="215" rx="22" ry="28" class="ear"/>
  <ellipse cx="484" cy="215" rx="22" ry="28" class="ear"/>
  <ellipse cx="196" cy="215" rx="11" ry="16" class="face"/>
  <ellipse cx="484" cy="215" rx="11" ry="16" class="face"/>

  <circle cx="340" cy="215" r="115" class="face"/>

  <circle cx="282" cy="108" r="32" class="hair"/>
  <circle cx="340" cy="96"  r="36" class="hair"/>
  <circle cx="398" cy="108" r="32" class="hair"/>

  <circle cx="303" cy="205" r="19" class="eye"/>
  <circle cx="377" cy="205" r="19" class="eye"/>
  <circle cx="307" cy="209" r="9"  class="pupil"/>
  <circle cx="381" cy="209" r="9"  class="pupil"/>
  <circle cx="312" cy="203" r="5" fill="white"/>
  <circle cx="386" cy="203" r="5" fill="white"/>

  <ellipse cx="274" cy="238" rx="23" ry="13" class="cheek"/>
  <ellipse cx="406" cy="238" rx="23" ry="13" class="cheek"/>

  <path d="M306 250 Q340 278 374 250" class="smile" stroke-width="5" stroke-linecap="round"/>
</svg>
